HIERARCHY
ROOT hip
{
	OFFSET 0.000000 0.000000 0.000000 
	CHANNELS 6 Xposition Yposition Zposition Xrotation Zrotation Yrotation
	JOINT abdomen
	{
		OFFSET 0.000000 3.402643 0.000000 
		CHANNELS 3 Xrotation Zrotation Yrotation
		JOINT chest
		{
			OFFSET 0.000000 8.438565 -0.680529 
			CHANNELS 3 Xrotation Zrotation Yrotation
			JOINT neck
			{
				OFFSET 0.000000 10.207942 -0.272212 
				CHANNELS 3 Xrotation Zrotation Yrotation
				JOINT head
				{
					OFFSET 0.000000 3.130431 0.000000 
					CHANNELS 3 Xrotation Zrotation Yrotation
					End Site
					{
						OFFSET 0.000000 3.130435 0.000000 
					}
				}
			}
			JOINT lCollar
			{
				OFFSET 3.470700 6.669187 -0.816635 
				CHANNELS 3 Yrotation Zrotation Xrotation
				JOINT lShldr
				{
					OFFSET 3.198488 0.000000 0.000000 
					CHANNELS 3 Zrotation Yrotation Xrotation
					JOINT lForeArm
					{
						OFFSET 10.139888 0.000000 0.000000 
						CHANNELS 3 Yrotation Zrotation Xrotation
						JOINT lHand
						{
							OFFSET 8.370511 0.000000 0.000000 
							CHANNELS 3 Zrotation Yrotation Xrotation
							End Site
							{
								OFFSET 4.083176 0.000000 0.000000 
							}
						}
					}
				}
			}
			JOINT rCollar
			{
				OFFSET -3.470700 6.669187 -0.816635 
				CHANNELS 3 Yrotation Zrotation Xrotation
				JOINT rShldr
				{
					OFFSET -3.198488 0.000000 0.000000 
					CHANNELS 3 Zrotation Yrotation Xrotation
					JOINT rForeArm
					{
						OFFSET -10.139888 0.000000 0.000000 
						CHANNELS 3 Yrotation Zrotation Xrotation
						JOINT rHand
						{
							OFFSET -8.370511 0.000000 0.000000 
							CHANNELS 3 Zrotation Yrotation Xrotation
							End Site
							{
								OFFSET -4.083176 0.000000 0.000000 
							}
						}
					}
				}
			}
		}
	}
	JOINT lThigh
	{
		OFFSET 5.308129 -1.633274 1.361059 
		CHANNELS 3 Xrotation Zrotation Yrotation
		JOINT lShin
		{
			OFFSET -2.041588 -20.007561 0.000000 
			CHANNELS 3 Xrotation Zrotation Yrotation
			JOINT lFoot
			{
				OFFSET 0.000000 -19.190928 -1.224953 
				CHANNELS 3 Xrotation Yrotation Zrotation
				End Site
				{
					OFFSET 0.000000 -2.449906 4.627600 
				}
			}
		}
	}
	JOINT rThigh
	{
		OFFSET -5.308129 -1.633274 1.361059 
		CHANNELS 3 Xrotation Zrotation Yrotation
		JOINT rShin
		{
			OFFSET 2.041588 -20.007561 0.000000 
			CHANNELS 3 Xrotation Zrotation Yrotation
			JOINT rFoot
			{
				OFFSET 0.000000 -19.190928 -1.224953 
				CHANNELS 3 Xrotation Yrotation Zrotation
				End Site
				{
					OFFSET 0.000000 -2.449906 4.627600 
				}
			}
		}
	}
}
MOTION
Frames: 10
Frame Time: 0.016667
-0.359308 41.271702 3.823598 -4.598163 -0.486642 12.285537 -3.752231 -0.574285 -4.638928 0.000000 0.000000 0.000000 9.883022 2.999244 -9.064756 9.297634 -0.371093 -0.117248 7.656016 17.650545 -13.308994 -92.588860 9.691410 56.085426 -8.012921 -6.863845 9.597425 -0.847693 -4.099372 -1.089502 -12.200525 -12.722730 -13.742380 95.780449 -14.011168 40.866066 3.785881 -0.879456 16.242313 13.229459 7.401937 0.053949 -1.777213 7.702636 1.654280 21.398756 -2.953525 -9.406087 -15.782279 0.674370 -3.688135 8.538094 1.042426 -27.635059 11.529860 2.708671 10.865943 -12.324999 5.042684 -3.592087 
-0.372500 41.269192 3.848109 -4.601510 -0.495906 12.432096 -3.866503 -0.983909 -4.014420 0.000000 0.000000 0.000000 10.002623 3.686502 -9.736682 9.317934 -0.527342 -0.166098 7.082661 18.583126 -14.585379 -93.139488 10.900047 56.517075 -8.091558 -6.890572 9.557078 -0.837904 -4.099187 -1.090200 -12.993943 -12.562943 -14.728956 96.101730 -15.285043 40.414719 3.756746 -0.917864 16.252907 13.464651 7.460890 0.088469 -1.816454 7.752718 1.537380 21.456104 -2.962708 -9.430779 -15.830557 0.648929 -3.680301 8.600307 1.121359 -27.678574 11.452262 2.708791 10.783341 -12.307953 5.022872 -3.570216 
-0.385689 41.266685 3.872620 -4.597265 -0.514687 12.578574 -3.979939 -1.394042 -3.389806 0.000000 0.000000 0.000000 10.123755 4.380092 -10.411363 9.328585 -0.673824 -0.205179 6.534835 19.530495 -15.855939 -93.676926 12.108813 56.945831 -8.171865 -6.907561 9.516731 -0.827415 -4.099142 -1.100638 -13.786389 -12.389539 -15.709022 96.438423 -16.552446 39.956676 3.736996 -0.953548 16.263327 13.698647 7.521994 0.114065 -1.825921 7.780760 1.412022 21.485788 -2.953702 -9.460324 -15.869275 0.664781 -3.705016 8.653835 1.207553 -27.721003 11.376075 2.708699 10.652045 -12.320524 5.056642 -3.574703 
-0.388043 41.265511 3.884048 -4.583499 -0.495568 12.607873 -3.995598 -1.442726 -3.428859 0.000000 0.000000 0.000000 10.160448 4.437442 -10.431580 9.387402 -0.703120 -0.214947 6.460068 19.629210 -16.021784 -93.801277 12.220009 57.229000 -8.235855 -6.886910 9.504485 -0.827415 -4.099142 -1.100638 -13.848413 -12.351328 -15.824306 96.475258 -16.707100 39.842712 3.714354 -0.980497 16.264011 13.659227 7.512584 0.106629 -1.835625 7.760704 1.381544 21.495325 -2.953728 -9.470667 -15.878846 0.661167 -3.707170 8.661591 1.200737 -27.712086 11.408202 2.699295 10.643884 -12.377547 5.035485 -3.594249 
-0.390396 41.264339 3.895472 -4.569795 -0.476435 12.646852 -4.021800 -1.481673 -3.458399 0.000000 0.000000 0.000000 10.186565 4.494645 -10.461537 9.436427 -0.722651 -0.224715 6.382468 19.729527 -16.178499 -93.928230 12.331128 57.512691 -8.308335 -6.869251 9.502748 -0.827415 -4.099142 -1.100638 -13.910325 -12.312922 -15.937449 96.510971 -16.853033 39.742130 3.682343 -1.010181 16.264862 13.629662 7.503150 0.100480 -1.824702 7.735671 1.350608 21.476812 -2.943862 -9.467797 -15.889042 0.676195 -3.709925 8.650106 1.190516 -27.694551 11.419817 2.698861 10.595600 -12.404254 5.016278 -3.624756 
-0.388458 41.264500 3.905135 -4.563457 -0.447832 12.656619 -4.020448 -1.491375 -3.487688 0.000000 0.000000 0.000000 10.229826 4.533342 -10.442834 9.456034 -0.742182 -0.224717 6.347407 19.758558 -16.253403 -94.002449 12.332970 57.870274 -8.422694 -6.838745 9.498822 -0.867085 -4.109506 -1.087946 -13.905905 -12.284994 -15.984307 96.495743 -16.910629 39.756878 3.672164 -1.042521 16.284866 13.659227 7.512584 0.106629 -1.806612 7.712383 1.320087 21.447906 -2.943800 -9.446482 -15.889420 0.683154 -3.706156 8.658520 1.180317 -27.685619 11.411354 2.696934 10.555927 -12.406582 5.048399 -3.619336 
-0.386519 41.264660 3.914794 -4.547344 -0.419231 12.666314 -4.028852 -1.501076 -3.516975 0.000000 0.000000 0.000000 10.275665 4.562582 -10.413630 9.475732 -0.751947 -0.234483 6.309532 19.798573 -16.344196 -94.080544 12.343616 58.216167 -8.546244 -6.818017 9.485027 -0.906241 -4.110247 -1.085146 -13.904207 -12.266468 -16.033249 96.487427 -16.975552 39.781315 3.649715 -1.068857 16.295118 13.690031 7.510218 0.119866 -1.785851 7.669672 1.288245 21.409462 -2.943715 -9.414826 -15.868473 0.680046 -3.740807 8.666088 1.160174 -27.697943 11.411908 2.696945 10.536461 -12.425822 5.054720 -3.626378 
-0.379357 41.266895 3.921347 -4.538453 -0.381192 12.617425 -4.000456 -1.461994 -3.575545 0.000000 0.000000 0.000000 10.292231 4.515965 -10.315518 9.495263 -0.751947 -0.234483 6.366555 19.762249 -16.358253 -94.115959 12.336089 57.502815 -8.505479 -7.143332 9.056799 -0.350963 -3.962828 -1.125998 -13.838898 -12.332111 -16.062941 96.481598 -16.926849 39.907516 3.662008 -1.074868 16.304695 13.698647 7.521994 0.114065 -1.816062 7.584682 1.126892 21.410442 -2.963286 -9.622297 -15.259268 0.593798 -3.200069 8.651494 1.083274 -27.582544 11.494346 2.689380 10.502191 -12.458042 5.031804 -3.571851 
-0.372195 41.269135 3.927896 -4.529627 -0.343138 12.568541 -3.981664 -1.422900 -3.643879 0.000000 0.000000 0.000000 10.298865 4.469304 -10.216645 9.505030 -0.751947 -0.234483 6.429954 19.734165 -16.388031 -94.153107 12.327874 56.799633 -8.470139 -7.469626 8.626431 0.213899 -3.814819 -1.164087 -13.770878 -12.388424 -16.090548 96.483871 -16.894146 40.029808 3.671376 -1.072129 16.304529 13.718349 7.521954 0.116622 -1.824901 7.493987 0.974806 21.392052 -2.982815 -9.818781 -14.618426 0.515187 -2.667436 8.628637 1.013836 -27.466082 11.538644 2.679321 10.425781 -12.465755 5.027705 -3.518882 
-0.365961 41.271431 3.938801 -4.478617 -0.333619 12.558776 -4.019999 -1.422854 -3.673166 0.000000 0.000000 0.000000 10.313601 4.478364 -10.255583 9.514795 -0.751947 -0.234483 6.445080 19.709888 -16.362705 -94.219788 12.167989 58.480072 -8.746041 -6.968423 8.902184 -0.292434 -3.951911 -1.130108 -13.778044 -12.388144 -16.078646 96.459206 -16.856600 40.195351 3.668634 -1.062756 16.304527 13.659227 7.512584 0.106629 -1.825104 7.455348 0.953305 21.334215 -2.982692 -9.776139 -14.609038 0.524794 -2.662299 8.614749 0.993161 -27.410677 11.480186 2.679486 10.373578 -12.457977 5.013634 -3.504668 
